<svg id="Layer_1" data-name="Layer 1" xmlns="http://www.w3.org/2000/svg" xmlns:xlink="http://www.w3.org/1999/xlink" viewBox="0 0 139.18 149.24"><defs><style>.cls-1{fill:none;}.cls-2{opacity:0.04;}.cls-11,.cls-2,.cls-8{isolation:isolate;}.cls-3{fill:#f2ba00;}.cls-4{fill:#ffd500;}.cls-5{clip-path:url(#clip-path);}.cls-6{fill:#ffea00;}.cls-7{fill:url(#linear-gradient);}.cls-8{opacity:0.07;}.cls-9{clip-path:url(#clip-path-2);}.cls-10{fill:#fff;}.cls-11{opacity:0.12;}.cls-12{fill:#900243;}.cls-13{fill:#eb1260;}.cls-14{fill:#f15a90;}</style><clipPath id="clip-path"><path class="cls-1" d="M94,0H45.22a10.76,10.76,0,0,0-7.6,3.15L3.15,37.61A10.76,10.76,0,0,0,0,45.21V94a10.76,10.76,0,0,0,3.15,7.6L37.62,136a10.76,10.76,0,0,0,7.6,3.15H94a10.76,10.76,0,0,0,7.6-3.15L136,101.55a10.76,10.76,0,0,0,3.15-7.6V45.22a10.76,10.76,0,0,0-3.15-7.6L101.57,3.15A10.76,10.76,0,0,0,94,0Z"/></clipPath><linearGradient id="linear-gradient" x1="69.57" y1="-7.49" x2="69.57" y2="131.39" gradientTransform="matrix(1, 0, 0, -1, 0, 141.46)" gradientUnits="userSpaceOnUse"><stop offset="0" stop-color="#d4145a"/><stop offset="1" stop-color="#f0f"/></linearGradient><clipPath id="clip-path-2"><path class="cls-1" d="M84.43,27.22H54.75a6.55,6.55,0,0,0-4.63,1.87l-21,21a6.55,6.55,0,0,0-1.92,4.63V84.43a6.55,6.55,0,0,0,1.94,4.66l21,21A6.55,6.55,0,0,0,54.77,112H84.43a6.55,6.55,0,0,0,4.63-1.92l21-21A6.55,6.55,0,0,0,112,84.46V54.75a6.55,6.55,0,0,0-1.93-4.66l-21-21A6.55,6.55,0,0,0,84.43,27.22Z"/></clipPath></defs><title>pixel_intro</title><g id="Layer_2" data-name="Layer 2"><g id="Layer_1-2" data-name="Layer 1-2"><path class="cls-2" d="M94,10H45.22a10.76,10.76,0,0,0-7.6,3.15L3.15,47.64A10.76,10.76,0,0,0,0,55.24V104a10.76,10.76,0,0,0,3.15,7.6l34.47,34.5a10.76,10.76,0,0,0,7.6,3.15H94a10.76,10.76,0,0,0,7.6-3.15L136,111.62a10.76,10.76,0,0,0,3.15-7.6V55.25a10.76,10.76,0,0,0-3.15-7.6L101.57,13.18A10.76,10.76,0,0,0,94,10Z"/><path class="cls-3" d="M94,5.62H45.22a10.76,10.76,0,0,0-7.6,3.15L3.15,43.23A10.76,10.76,0,0,0,0,50.83V99.57a10.76,10.76,0,0,0,3.15,7.6l34.47,34.47a10.76,10.76,0,0,0,7.6,3.15H94a10.76,10.76,0,0,0,7.6-3.15L136,107.17a10.76,10.76,0,0,0,3.15-7.6V50.84a10.76,10.76,0,0,0-3.15-7.6L101.57,8.77A10.76,10.76,0,0,0,94,5.62Z"/><path class="cls-4" d="M94,0H45.22a10.76,10.76,0,0,0-7.6,3.15L3.15,37.61A10.76,10.76,0,0,0,0,45.21V94a10.76,10.76,0,0,0,3.15,7.6L37.62,136a10.76,10.76,0,0,0,7.6,3.15H94a10.76,10.76,0,0,0,7.6-3.15L136,101.55a10.76,10.76,0,0,0,3.15-7.6V45.22a10.76,10.76,0,0,0-3.15-7.6L101.57,3.15A10.76,10.76,0,0,0,94,0Z"/><g class="cls-5"><rect class="cls-6" x="-29.48" y="50.04" width="184.38" height="28.94" transform="translate(-27.25 63.24) rotate(-45)"/><rect class="cls-6" x="-10.45" y="78.04" width="184.38" height="10.85" transform="translate(-35.08 82.25) rotate(-45)"/></g><path class="cls-7" d="M89.21,13.57H50a8.66,8.66,0,0,0-6.12,2.52L16.1,43.85A8.66,8.66,0,0,0,13.56,50V89.21a8.66,8.66,0,0,0,2.54,6.12l27.75,27.76A8.66,8.66,0,0,0,50,125.63H89.21a8.66,8.66,0,0,0,6.08-2.54L123,95.34a8.66,8.66,0,0,0,2.54-6.12V50A8.66,8.66,0,0,0,123,43.85L95.29,16.09A8.66,8.66,0,0,0,89.21,13.57Z"/><path class="cls-8" d="M123.08,44.09,95.29,16.37a8.66,8.66,0,0,0-6.12-2.54H50a8.66,8.66,0,0,0-6.12,2.54L16.1,44.09a8.66,8.66,0,0,0-2.54,6.12v5.5a8.66,8.66,0,0,1,2.54-6.12L43.85,21.87A8.66,8.66,0,0,1,50,19.33H89.21a8.66,8.66,0,0,1,6.08,2.54L123,49.62a8.66,8.66,0,0,1,2.54,6.12v-5.5A8.66,8.66,0,0,0,123.08,44.09Z"/><path class="cls-6" d="M16.1,101l27.75,27.75A8.66,8.66,0,0,0,50,131.26H89.21a8.66,8.66,0,0,0,6.12-2.54L123.08,101a8.66,8.66,0,0,0,2.54-6.12v-5.5a8.66,8.66,0,0,1-2.54,6.12L95.29,123.21a8.66,8.66,0,0,1-6.12,2.54H50a8.66,8.66,0,0,1-6.12-2.54L16.1,95.46a8.66,8.66,0,0,1-2.54-6.12v5.5A8.66,8.66,0,0,0,16.1,101Z"/><path class="cls-8" d="M84.43,33.24H54.75a6.55,6.55,0,0,0-4.63,1.92l-21,21a6.55,6.55,0,0,0-1.92,4.63V90.47a6.55,6.55,0,0,0,1.94,4.62l21,21A6.55,6.55,0,0,0,54.77,118H84.43a6.55,6.55,0,0,0,4.63-1.92l21-21A6.55,6.55,0,0,0,112,90.46V60.78a6.55,6.55,0,0,0-1.92-4.63l-21-21A6.55,6.55,0,0,0,84.43,33.24Z"/><path class="cls-3" d="M84.43,30.88H54.75a6.55,6.55,0,0,0-4.63,1.92l-21,21a6.55,6.55,0,0,0-1.92,4.63V88.09a6.55,6.55,0,0,0,1.92,4.63l21,21a6.55,6.55,0,0,0,4.63,1.92H84.43a6.55,6.55,0,0,0,4.63-1.92l21-21a6.55,6.55,0,0,0,1.9-4.63V58.42A6.55,6.55,0,0,0,110,53.79l-21-21A6.55,6.55,0,0,0,84.43,30.88Z"/><path class="cls-4" d="M84.43,27.22H54.75a6.55,6.55,0,0,0-4.63,1.87l-21,21a6.55,6.55,0,0,0-1.92,4.63V84.43a6.55,6.55,0,0,0,1.94,4.66l21,21A6.55,6.55,0,0,0,54.77,112H84.43a6.55,6.55,0,0,0,4.63-1.92l21-21A6.55,6.55,0,0,0,112,84.46V54.75a6.55,6.55,0,0,0-1.93-4.66l-21-21A6.55,6.55,0,0,0,84.43,27.22Z"/><g class="cls-9"><rect class="cls-6" x="-29.48" y="50.04" width="184.38" height="28.94" transform="translate(-27.25 63.24) rotate(-45)"/><rect class="cls-6" x="-10.45" y="78.04" width="184.38" height="10.85" transform="translate(-35.08 82.25) rotate(-45)"/></g><circle class="cls-10" cx="103.66" cy="33.18" r="2.25" transform="translate(8.36 85.77) rotate(-46.64)"/><circle class="cls-10" cx="32.75" cy="113.94" r="3.47" transform="translate(-72.58 59.52) rotate(-46.64)"/><path class="cls-10" d="M118.61,49.38c-3.79.82-5.14,2.17-5.95,6a.7.7,0,0,1-1.37,0c-.82-3.79-2.17-5.14-6-6a.7.7,0,0,1,0-1.37c3.79-.82,5.14-2.17,5.95-6a.7.7,0,0,1,1.37,0c.82,3.79,2.17,5.14,6,6a.7.7,0,0,1,0,1.37Z"/><path class="cls-11" d="M45.29,67.85l31-30.76a1.88,1.88,0,0,1,3.33,1.19v20a1.88,1.88,0,0,0,1.9,1.81H94v7.63a1.91,1.91,0,0,1-.43,1.21L62.88,106.35a1.88,1.88,0,0,1-3.33-1.19V78.46a1.88,1.88,0,0,0-1.88-1.88H47.15a1.91,1.91,0,0,1-1.86-1.9Z"/><path class="cls-12" d="M45,64.89,76.29,31.8A1.88,1.88,0,0,1,79.62,33V54.45a1.88,1.88,0,0,0,1.88,1.88H94.14v6.14a1.91,1.91,0,0,1-.43,1.21L62.88,101.09a1.88,1.88,0,0,1-3.33-1.19v-26a1.88,1.88,0,0,0-1.88-1.81H46.87A1.91,1.91,0,0,1,45,70.18h0Z"/><path class="cls-13" d="M93.75,57.47,62.88,95.09a1.88,1.88,0,0,1-3.33-1.19V67.26a.42.42,0,0,0-.41-.43H47a2.08,2.08,0,0,1-1.61-3.4L76.29,25.8A1.88,1.88,0,0,1,79.62,27V53.65a.42.42,0,0,0,.42.42H92.11a2.09,2.09,0,0,1,1.64,3.4Z"/><path class="cls-14" d="M93.75,57.47,62.88,95.09a1.88,1.88,0,0,1-3.33-1.19V67.26a.42.42,0,0,0-.41-.43h-1L79.64,45.3v8.35a.42.42,0,0,0,.42.42H92.13a2.09,2.09,0,0,1,1.62,3.4Z"/></g></g></svg>