<svg xmlns="http://www.w3.org/2000/svg" xmlns:xlink="http://www.w3.org/1999/xlink" viewBox="0 0 139.19 149.21"><defs><style>.cls-1{fill:none;}.cls-2{fill:#f8f8f8;}.cls-3{fill:#c8c8c8;}.cls-4{fill:#d7d7d7;}.cls-5{clip-path:url(#clip-path);}.cls-6{fill:#e1e1e1;}.cls-7{fill:url(#linear-gradient);}.cls-8{fill:url(#linear-gradient-2);}.cls-9{clip-path:url(#clip-path-2);}.cls-10{fill:#c5c5c5;}.cls-11{fill:#cecece;}.cls-12{fill:#a1a1a1;}.cls-13{fill:#aeaeae;}.cls-14{fill:#b9b9b9;}</style><clipPath id="clip-path"><path class="cls-1" d="M94,0H45.22a10.76,10.76,0,0,0-7.6,3.15L3.15,37.62A10.76,10.76,0,0,0,0,45.22V94a10.76,10.76,0,0,0,3.15,7.6L37.62,136a10.75,10.75,0,0,0,7.6,3.15H94a10.75,10.75,0,0,0,7.6-3.15L136,101.57a10.75,10.75,0,0,0,3.15-7.6V45.22a10.75,10.75,0,0,0-3.15-7.6L101.57,3.15A10.76,10.76,0,0,0,94,0"/></clipPath><linearGradient id="linear-gradient" x1="-7862.02" y1="3872.77" x2="-7861.17" y2="3872.77" gradientTransform="matrix(0, -163.56, -163.56, 0, 633514.81, -1285794.81)" gradientUnits="userSpaceOnUse"><stop offset="0" stop-color="#a8aaac"/><stop offset="1" stop-color="#c5c7c8"/></linearGradient><linearGradient id="linear-gradient-2" x1="-7862.02" y1="3872.77" x2="-7861.17" y2="3872.77" gradientTransform="matrix(0, -163.56, -163.56, 0, 633514.81, -1285794.81)" gradientUnits="userSpaceOnUse"><stop offset="0" stop-color="#a1a2a4"/><stop offset="1" stop-color="#bcbdbf"/></linearGradient><clipPath id="clip-path-2"><path class="cls-1" d="M84.43,27.22H54.75a6.55,6.55,0,0,0-4.63,1.92l-21,21a6.55,6.55,0,0,0-1.92,4.63V84.43a6.54,6.54,0,0,0,1.92,4.63l21,21A6.55,6.55,0,0,0,54.75,112H84.43A6.55,6.55,0,0,0,89.06,110l21-21A6.55,6.55,0,0,0,112,84.43V54.75A6.55,6.55,0,0,0,110,50.12l-21-21a6.55,6.55,0,0,0-4.63-1.92"/></clipPath></defs><title>Cha-0</title><g id="Layer_2" data-name="Layer 2"><g id="Layer_1-2" data-name="Layer 1"><path class="cls-2" d="M0,55.25H0V104a10.76,10.76,0,0,0,3.15,7.6l34.47,34.47a10.76,10.76,0,0,0,7.6,3.15H94a10.76,10.76,0,0,0,7.6-3.15L136,111.6a10.75,10.75,0,0,0,3.15-7.6V99.58a10.75,10.75,0,0,1-3.15,7.6l-34.47,34.47A10.76,10.76,0,0,1,94,144.8H45.22a10.76,10.76,0,0,1-7.6-3.15L3.15,107.19A10.76,10.76,0,0,1,0,99.58V55.25"/><path class="cls-3" d="M0,50.84H0V99.58a10.76,10.76,0,0,0,3.15,7.6l34.47,34.47a10.76,10.76,0,0,0,7.6,3.15H94a10.76,10.76,0,0,0,7.6-3.15L136,107.19a10.75,10.75,0,0,0,3.15-7.6h0V94a10.75,10.75,0,0,1-3.15,7.6L101.57,136a10.75,10.75,0,0,1-7.6,3.15H45.22a10.75,10.75,0,0,1-7.6-3.15L3.15,101.57A10.76,10.76,0,0,1,0,94V50.84"/><path class="cls-4" d="M34.23,113.46l-.07.07,4.93,4.93.07-.07-4.93-4.93m88.82-88.82-9.59,9.59,4.93,4.93L128,29.56l-4.93-4.93M94,0H45.22a10.76,10.76,0,0,0-7.6,3.15L3.15,37.62A10.76,10.76,0,0,0,0,45.22V94a10.76,10.76,0,0,0,3.15,7.6L37.62,136a10.75,10.75,0,0,0,7.6,3.15H94a10.75,10.75,0,0,0,7.6-3.15L136,101.57a10.75,10.75,0,0,0,3.15-7.6h0V45.22a10.75,10.75,0,0,0-3.15-7.6l-.38-.38L125.28,47.6a8.66,8.66,0,0,1,.33,2.37v.26h0v5.5h0V89.21a8.66,8.66,0,0,1-2.54,6.12L95.33,123.08a8.65,8.65,0,0,1-6.12,2.54H50a8.66,8.66,0,0,1-2.37-.33l-.1.1a8.67,8.67,0,0,0,2.47.36H89.21a8.65,8.65,0,0,0,6.12-2.54l27.75-27.75a8.65,8.65,0,0,0,2.54-6.12v5.5a8.65,8.65,0,0,1-2.54,6.12L95.33,128.71a8.65,8.65,0,0,1-6.12,2.54H50a8.66,8.66,0,0,1-6-2.38l-6.78,6.78L29.56,128l6.78-6.78-4.93-4.93L24.63,123,4.17,102.59l9.4-9.4V89.34a8.65,8.65,0,0,0,.62,3.22l0,0a8.65,8.65,0,0,1-.66-3.32V50a8.66,8.66,0,0,1,2.54-6.12L43.85,16.1A8.66,8.66,0,0,1,50,13.57H89.21a8.66,8.66,0,0,1,3.32.66L102.59,4.17l-1-1A10.76,10.76,0,0,0,94,0"/><g class="cls-5"><path class="cls-6" d="M13.57,93.19l-9.4,9.4L24.63,123l6.78-6.78L16.1,101a8.66,8.66,0,0,1-2.54-6.12V93.19m.66-.66,0,0a8.66,8.66,0,0,0,1.91,2.9l18.06,18.06.07-.07L16.1,95.33a8.67,8.67,0,0,1-1.88-2.81M102.59,4.17h0L92.53,14.23a8.65,8.65,0,0,1,2.8,1.87l18.12,18.12,9.59-9.59L102.59,4.17"/><path class="cls-6" d="M36.34,121.2,29.56,128l7.67,7.67L44,128.87l-.16-.16-7.51-7.51m2.82-2.82-.07.07,4.76,4.76a8.65,8.65,0,0,0,3.65,2.17l.1-.1a8.65,8.65,0,0,1-3.75-2.2l-4.7-4.7M128,29.56h0l-9.59,9.59,4.7,4.7a8.65,8.65,0,0,1,2.2,3.75l10.37-10.37L128,29.56"/></g><path class="cls-7" d="M75.12,27.22l1.19-1.45a1.82,1.82,0,0,1,1.43-.69A1.88,1.88,0,0,1,79.64,27v.26h4.79a6.55,6.55,0,0,1,4.63,1.92L103.8,43.88l4.93,4.93L110,50.12A6.55,6.55,0,0,1,112,54.75V84.43h0V88.1h0v2.36A6.55,6.55,0,0,1,110,95.09l-21,21A6.55,6.55,0,0,1,84.43,118H54.75a6.55,6.55,0,0,1-4.63-1.92l-21-21a6.54,6.54,0,0,1-1.92-4.63V60.78h0V58.42h0V54.75a6.55,6.55,0,0,1,1.92-4.63l21-21a6.55,6.55,0,0,1,4.63-1.92H75.12M89.21,13.57H50a8.66,8.66,0,0,0-6.12,2.53L16.1,43.85A8.66,8.66,0,0,0,13.57,50V89.21a8.66,8.66,0,0,0,2.54,6.12l18.12,18.12,4.93,4.93,4.7,4.7A8.66,8.66,0,0,0,50,125.62H89.21a8.65,8.65,0,0,0,6.12-2.54l27.75-27.74a8.66,8.66,0,0,0,2.54-6.12V55.74a8.65,8.65,0,0,0-2.54-6.12L95.33,21.87a8.66,8.66,0,0,0-6.12-2.53H50a8.66,8.66,0,0,0-6.12,2.53L16.1,49.62a8.66,8.66,0,0,0-2.54,6.12v-5.5a8.66,8.66,0,0,1,2.54-6.12L43.85,16.37A8.66,8.66,0,0,1,50,13.83H89.21a8.66,8.66,0,0,1,6.12,2.53l27.75,27.75a8.66,8.66,0,0,1,2.54,6.12V50a8.65,8.65,0,0,0-2.54-6.12l-4.7-4.7-4.93-4.93L95.33,16.1a8.65,8.65,0,0,0-6.12-2.53"/><path class="cls-8" d="M89.21,13.83H50a8.66,8.66,0,0,0-6.12,2.53L16.1,44.11a8.66,8.66,0,0,0-2.54,6.12v5.5a8.66,8.66,0,0,1,2.54-6.12L43.85,21.87A8.66,8.66,0,0,1,50,19.34H89.21a8.66,8.66,0,0,1,6.12,2.53l27.75,27.75a8.65,8.65,0,0,1,2.54,6.12v-5.5a8.66,8.66,0,0,0-2.54-6.12L95.33,16.37a8.66,8.66,0,0,0-6.12-2.53"/><path class="cls-6" d="M125.62,89.34a8.65,8.65,0,0,1-2.54,6.12L95.33,123.21a8.65,8.65,0,0,1-6.12,2.54H50a8.66,8.66,0,0,1-6.12-2.54l-4.76-4.76-4.93-4.93L16.1,95.46a8.66,8.66,0,0,1-2.54-6.12v5.5A8.66,8.66,0,0,0,16.1,101l15.3,15.3,4.93,4.93,7.51,7.51.16.16a8.66,8.66,0,0,0,6,2.38H89.21a8.65,8.65,0,0,0,6.12-2.54L123.08,101a8.65,8.65,0,0,0,2.54-6.12v-5.5"/><path class="cls-8" d="M27.22,60.78h0V90.46a6.54,6.54,0,0,0,1.92,4.63l21,21A6.55,6.55,0,0,0,54.75,118H84.43a6.55,6.55,0,0,0,4.63-1.92l21-21A6.55,6.55,0,0,0,112,90.46V88.1A6.55,6.55,0,0,1,110,92.73l-21,21a6.55,6.55,0,0,1-4.63,1.92H54.75a6.55,6.55,0,0,1-4.63-1.92l-21-21a6.54,6.54,0,0,1-1.92-4.63V60.78"/><path class="cls-3" d="M27.22,58.42h0V88.1a6.54,6.54,0,0,0,1.92,4.63l21,21a6.55,6.55,0,0,0,4.63,1.92H84.43a6.55,6.55,0,0,0,4.63-1.92l21-21A6.55,6.55,0,0,0,112,88.1h0V84.43A6.55,6.55,0,0,1,110,89.06l-21,21A6.55,6.55,0,0,1,84.43,112H54.75A6.55,6.55,0,0,1,50.12,110l-21-21a6.54,6.54,0,0,1-1.92-4.63v-26"/><path class="cls-4" d="M103.8,43.88,93.3,54.39a2.12,2.12,0,0,1,.92,1.73,2,2,0,0,1-.06.5v5.81a1.91,1.91,0,0,1-.14.73v.37l14.71-14.71-4.93-4.93M75.12,27.22H54.75a6.55,6.55,0,0,0-4.63,1.92l-21,21a6.55,6.55,0,0,0-1.92,4.63V84.43a6.54,6.54,0,0,0,1.92,4.63l21,21A6.55,6.55,0,0,0,54.75,112H84.43A6.55,6.55,0,0,0,89.06,110l21-21A6.55,6.55,0,0,0,112,84.43h0V60.92l-51,51H54.75A6.55,6.55,0,0,1,50.12,110l-1.32-1.32L59.55,98V94s0-.05,0-.08V88.13L43.88,103.8,29.14,89.06a6.54,6.54,0,0,1-1.92-4.63V79.54L54.95,51.81,75.12,27.22"/><g class="cls-9"><path class="cls-6" d="M54.95,51.81,27.22,79.54v4.89a6.54,6.54,0,0,0,1.92,4.63L43.88,103.8,59.55,88.13V78.35a1.88,1.88,0,0,0-1.88-1.8H47.15a1.91,1.91,0,0,1-1.91-1.91V71.15a1.9,1.9,0,0,1-.28-1l0-5.27a2.06,2.06,0,0,1,.46-1.5l9.5-11.58M84.43,27.22H79.64v5.63s0,.08,0,.11V53.67a.43.43,0,0,0,.43.37H92.13a2.06,2.06,0,0,1,1.16.35L103.8,43.88,89.06,29.14a6.55,6.55,0,0,0-4.63-1.92"/><path class="cls-6" d="M108.73,48.81h0L94,63.52v4.15a1.9,1.9,0,0,1-.43,1.21L62.88,106.31a1.83,1.83,0,0,1-1.43.69,1.87,1.87,0,0,1-1.89-1.88V98L48.81,108.73,50.12,110A6.55,6.55,0,0,0,54.75,112h6.17l51-51V54.75A6.55,6.55,0,0,0,110,50.12l-1.32-1.32"/></g><path class="cls-10" d="M94,63.15a1.89,1.89,0,0,1-.29.48l-.83,1L94,63.52v-.37"/><path class="cls-11" d="M94,63.52,92.9,64.64l-30,36.43a1.83,1.83,0,0,1-1.43.69,1.87,1.87,0,0,1-1.9-1.88v5.25A1.87,1.87,0,0,0,61.44,107a1.83,1.83,0,0,0,1.43-.69L93.59,68.88A1.9,1.9,0,0,0,94,67.67V63.52"/><path class="cls-11" d="M45.24,71.15v3.49a1.91,1.91,0,0,0,1.91,1.91H57.67a1.88,1.88,0,0,1,1.88,1.8v-4.5A1.88,1.88,0,0,0,57.67,72l-10.8,0a1.9,1.9,0,0,1-1.63-.92"/><path class="cls-12" d="M45,64.89l0,5.27a1.9,1.9,0,0,0,1.9,1.9l10.8,0a1.88,1.88,0,0,1,1.88,1.8V67.23a.42.42,0,0,0-.43-.43H47.05A2.08,2.08,0,0,1,45,64.89m49.18-8.27a2.08,2.08,0,0,1-.42.82L62.88,95.06a1.83,1.83,0,0,1-1.44.69A1.87,1.87,0,0,1,59.55,94v5.92a1.87,1.87,0,0,0,1.9,1.88,1.83,1.83,0,0,0,1.43-.69l30-36.43.83-1a1.89,1.89,0,0,0,.29-.48,1.91,1.91,0,0,0,.14-.73V56.61M79.64,32.84V53.62a.4.4,0,0,0,0,.05V33s0-.08,0-.11"/><path class="cls-13" d="M77.75,25.08a1.82,1.82,0,0,0-1.43.69l-1.19,1.45L54.95,51.81l-9.5,11.58a2.08,2.08,0,0,0,1.61,3.4H59.12a.42.42,0,0,1,.43.43v0a.42.42,0,0,0-.43-.43h-1L79.64,45.27V27a1.88,1.88,0,0,0-1.9-1.89"/><path class="cls-14" d="M79.64,45.27h0L58.17,66.8h1a.42.42,0,0,1,.43.43V93.87a1.87,1.87,0,0,0,1.89,1.88,1.83,1.83,0,0,0,1.44-.69L93.75,57.44a2,2,0,0,0,.47-1.32,2.12,2.12,0,0,0-.92-1.73A2.06,2.06,0,0,0,92.13,54H80.07a.43.43,0,0,1-.43-.37.4.4,0,0,1,0-.05V45.27"/></g></g></svg>